<?xml version="1.0" encoding="UTF-8" standalone="no"?>
<svg
   xmlns:dc="http://purl.org/dc/elements/1.1/"
   xmlns:cc="http://creativecommons.org/ns#"
   xmlns:rdf="http://www.w3.org/1999/02/22-rdf-syntax-ns#"
   xmlns:svg="http://www.w3.org/2000/svg"
   xmlns="http://www.w3.org/2000/svg"
   version="1.1"
   id="svg2"
   viewBox="0 0 285.3662 299.46933"
   height="84.516899mm"
   width="80.536682mm">
  <defs
     id="defs4" />
  <metadata
     id="metadata7">
    <rdf:RDF>
      <cc:Work
         rdf:about="">
        <dc:format>image/svg+xml</dc:format>
        <dc:type
           rdf:resource="http://purl.org/dc/dcmitype/StillImage" />
        <dc:title></dc:title>
      </cc:Work>
    </rdf:RDF>
  </metadata>
  <g
     transform="translate(-98.380656,-733.37402)"
     id="layer1">
    <g
       transform="translate(-261.81818,-244.54545)"
       id="g4871">
      <g
         transform="matrix(1.3101431,0,0,1.3616585,-160.33254,-303.54497)"
         style="font-style:normal;font-weight:normal;font-size:40px;line-height:125%;font-family:sans-serif;letter-spacing:0px;word-spacing:0px;fill:#000000;fill-opacity:1;stroke:none;stroke-width:1px;stroke-linecap:butt;stroke-linejoin:miter;stroke-opacity:1"
         id="flowRoot4417" />
      <g
         style="fill:#000000;fill-opacity:1;stroke:none"
         id="g4446">
        <g
           style="fill:#000000;fill-opacity:1;stroke:none"
           id="g4452" />
      </g>
      <path
         id="path3359"
         d="m 469.03367,1186.714 0,-80.0926 60.18519,0 0,16.6667 -36.57408,0 0,13.8889 32.87037,0 0,16.2037 -32.4074,0 0,33.3333 z"
         style="fill:#d35f5f;fill-opacity:1;fill-rule:evenodd;stroke:none;stroke-width:1px;stroke-linecap:butt;stroke-linejoin:miter;stroke-opacity:1" />
      <path
         id="path3361"
         d="m 536.64478,1187.177 20.83334,0 0,-61.1111 16.0387,59.8572 17.75759,0 16.01874,-59.7827 0,60.5736 20.55534,0 0,-80.0926 -32.87037,0 -12.67391,47.2997 -12.62791,-47.128 -33.03152,0 z"
         style="fill:#d35f5f;fill-opacity:1;fill-rule:evenodd;stroke:none;stroke-width:1px;stroke-linecap:butt;stroke-linejoin:miter;stroke-opacity:1" />
      <path
         id="path3363"
         d="m 435.21893,1106.1582 -26.38867,1.3886 -30.55664,79.168 25.46289,0 3.70508,-12.9629 27.77734,-0.9277 4.62891,13.4277 26.38867,0 -31.01758,-80.0937 z m -13.42578,20.834 8.33398,29.6289 -16.66797,0 8.33399,-29.6289 z"
         style="fill:#d35f5f;fill-opacity:1;fill-rule:evenodd;stroke:none;stroke-width:1px;stroke-linecap:butt;stroke-linejoin:miter;stroke-opacity:1" />
      <g
         id="g3365"
         style="font-style:normal;font-weight:normal;font-size:40px;line-height:125%;font-family:sans-serif;letter-spacing:0px;word-spacing:0px;fill:#000000;fill-opacity:1;stroke:none;stroke-width:1px;stroke-linecap:butt;stroke-linejoin:miter;stroke-opacity:1"
         transform="matrix(1.3101431,0,0,1.3616585,-245.78708,-29.908606)">
        <path
           id="path3367"
           style="font-style:normal;font-variant:normal;font-weight:bold;font-stretch:normal;font-family:sans-serif;-inkscape-font-specification:'sans-serif Bold';fill:#000000;fill-opacity:1;stroke:none"
           d="m 571.17773,802.14536 q -2.32421,0 -3.55468,1.67968 -1.21094,1.66016 -1.21094,4.80469 0,3.14453 1.21094,4.82422 1.23047,1.66016 3.55468,1.66016 2.28516,0 3.4961,-1.66016 1.21094,-1.67969 1.21094,-4.82422 0,-3.14453 -1.21094,-4.80469 -1.21094,-1.67968 -3.4961,-1.67968 z m 0,-5 q 5.64454,0 8.8086,3.04687 3.18359,3.04688 3.18359,8.4375 0,5.39063 -3.18359,8.4375 -3.16406,3.04688 -8.8086,3.04688 -5.66406,0 -8.86718,-3.04688 -3.1836,-3.04687 -3.1836,-8.4375 0,-5.39062 3.1836,-8.4375 3.20312,-3.04687 8.86718,-3.04687 z" />
        <path
           id="path3369"
           style="font-style:normal;font-variant:normal;font-weight:bold;font-stretch:normal;font-family:sans-serif;-inkscape-font-specification:'sans-serif Bold';fill:#000000;fill-opacity:1;stroke:none"
           d="m 595.25977,816.38364 0,11.48437 -6.99219,0 0,-30.19531 6.99219,0 0,3.20313 c 0.96354,-1.27605 2.03125,-2.21355 3.20312,-2.8125 1.17187,-0.61198 2.51953,-0.91797 4.04297,-0.91797 2.69531,0 4.90885,1.07422 6.64062,3.22265 1.73177,2.13542 2.09879,4.88933 2.09879,8.26172 0,3.3724 -0.36702,6.13282 -2.09879,8.28125 -1.73177,2.13542 -3.94531,3.20313 -6.64062,3.20313 -1.52344,0 -2.8711,-0.29948 -4.04297,-0.89844 -1.17187,-0.61198 -2.23958,-1.55599 -3.20312,-2.83203 z m 4.64843,-14.16016 c -1.49739,0 -2.64974,0.55339 -3.45703,1.66016 -0.79427,1.09375 -1.1914,2.67578 -1.1914,4.74609 0,2.07031 0.39713,3.65886 1.1914,4.76563 0.80729,1.09375 1.95964,1.64062 3.45703,1.64062 1.4974,0 2.63672,-0.54687 3.41797,-1.64062 0.79427,-1.09375 1.19141,-2.6823 1.19141,-4.76563 0,-2.08333 -0.39714,-3.67187 -1.19141,-4.76562 -0.78125,-1.09375 -1.92057,-1.64063 -3.41797,-1.64063 z" />
        <path
           id="path3371"
           style="font-style:normal;font-variant:normal;font-weight:bold;font-stretch:normal;font-family:sans-serif;-inkscape-font-specification:'sans-serif Bold';fill:#000000;fill-opacity:1;stroke:none"
           d="m 638.77539,808.55161 0,1.99218 -16.34766,0 q 0.25391,2.46094 1.77735,3.69141 1.52344,1.23047 4.25781,1.23047 2.20703,0 4.51172,-0.64453 2.32422,-0.66406 4.76562,-1.99219 l 0,5.39063 q -2.48046,0.9375 -4.96093,1.40625 -2.48047,0.48828 -4.96094,0.48828 -5.9375,0 -9.23828,-3.00782 -3.28125,-3.02734 -3.28125,-8.47656 0,-5.35156 3.22265,-8.41797 3.24219,-3.0664 8.90625,-3.0664 5.15625,0 8.24219,3.10547 3.10547,3.10546 3.10547,8.30078 z m -7.1875,-2.32422 q 0,-1.99219 -1.17187,-3.20313 -1.15235,-1.23047 -3.02735,-1.23047 -2.03125,0 -3.30078,1.15235 -1.26953,1.13281 -1.58203,3.28125 l 9.08203,0 z" />
        <path
           id="path3373"
           style="font-style:normal;font-variant:normal;font-weight:bold;font-stretch:normal;font-family:sans-serif;-inkscape-font-specification:'sans-serif Bold';fill:#000000;fill-opacity:1;stroke:none"
           d="m 666.11914,806.22739 0,13.32031 -7.03125,0 0,-2.16797 0,-8.02734 q 0,-2.83203 -0.13672,-3.90625 -0.11719,-1.07422 -0.42969,-1.58203 -0.41015,-0.6836 -1.11328,-1.05469 -0.70312,-0.39063 -1.60156,-0.39063 -2.1875,0 -3.4375,1.69922 -1.25,1.67969 -1.25,4.66797 l 0,10.76172 -6.99219,0 0,-21.875 6.99219,0 0,3.20313 q 1.58203,-1.91407 3.35938,-2.8125 1.77734,-0.91797 3.92578,-0.91797 3.78906,0 5.74218,2.32422 1.97266,2.32421 1.97266,6.75781 z" />
      </g>
      <g
         transform="translate(-4.5454545,273.63636)"
         id="g3375"
         style="fill:#000000;fill-opacity:1;stroke:none">
        <g
           id="g3377"
           style="fill:#000000;fill-opacity:1;stroke:none">
          <path
             id="path3379"
             d="m 462.97339,873.65397 c -0.32016,-3.80773 -0.61482,-7.74448 -0.88189,-11.81464 -1.63399,-88.88889 17.70641,-117.43892 22.02536,-125.51775 0,0 48.56287,-68.5999 64.90274,94.472 0,0 -20.08425,-148.46839 -59.62673,-89.64486 0,0 -21.74581,27.88016 -21.09222,123.63179 0,0 0.10055,6.2506 0.46627,12.47588 m 1.36602,15.28067 c 1.96217,20.45876 5.93742,47.50395 13.85399,64.07351 0,0 17.32025,56.20913 45.42483,6.86275 0,0 -6.86274,23.20261 -25.16339,22.54902 0,0 -28.94463,-1.73358 -40.00378,-97.51412"
             style="fill:#4d4d4d;fill-opacity:1;fill-rule:evenodd;stroke:none;stroke-width:1px;stroke-linecap:butt;stroke-linejoin:miter;stroke-opacity:1" />
          <path
             id="path3381"
             d="m 410.08984,784.71484 c -3.88751,0.0154 -6.78275,0.26651 -8.24414,0.69727 -8.35507,2.46276 -14.52402,3.61232 -11.68359,18.02734 4.46222,22.64553 26.44626,42.74559 42.25586,58.40235 17.8622,16.12345 41.27456,29.22883 62.51176,40.45312 l 7.11715,-1.81445 c -21.52169,-11.47164 -46.17227,-25.99109 -64.74024,-41.83203 -15.22998,-15.19971 -35.36847,-33.19277 -42.64453,-54.27735 -4.32241,-10.2181 0.004,-14.1627 8.13672,-16.87695 9.07026,-3.02732 38.79047,0.11236 61.28711,7.44141 l 0,-1.20313 c -18.44834,-6.65727 -41.41613,-9.06749 -53.9961,-9.01758 z m 56.42578,9.94141 0,1.08594 c 1.70412,0.59286 3.36965,1.20387 4.96094,1.8457 -0.10081,-0.2419 -0.15065,-0.54302 -0.1289,-0.89648 -1.55385,-0.72021 -3.17921,-1.38928 -4.83204,-2.03516 z m 8.26172,3.75195 0,0.59375 c 2.13672,0.9657 4.13888,1.97454 5.94141,3.03321 -1.81719,-1.29673 -3.81917,-2.4986 -5.94141,-3.62696 z m 85.02735,45.78321 c 7.25582,5.57798 14.32567,11.40152 21.18945,17.45703 0.12995,-0.0602 0.7792,-0.37029 1.40625,-0.66211 -7.31906,-5.74147 -14.7968,-11.00302 -22.5957,-16.79492 z m 25.67383,19.22265 c -0.27263,0.12123 -0.54317,0.29558 -0.76563,0.42383 -0.72718,0.41922 -0.72321,0.40938 -0.76953,0.43164 0.74587,0.67167 1.4774,1.35874 2.21875,2.03516 0.34131,-0.48799 0.69671,-0.96482 1.0918,-1.41016 -0.59205,-0.49061 -1.18163,-0.99867 -1.77539,-1.48047 z m 5.14062,4.33008 c -0.094,0.19183 -0.21476,0.38123 -0.44141,0.64063 -0.22922,0.26234 -0.63321,0.4545 -1.07031,0.62304 0.18625,0.17053 0.37442,0.33892 0.5586,0.51172 1.64897,1.66432 2.11653,1.80469 3.8125,3.48438 l 0.94921,-1.875 c -1.26537,-1.16812 -2.53581,-2.28493 -3.80859,-3.38477 z m 28.01953,39.58398 c 3.11894,9.19666 0.0446,22.18046 -10.88086,23.53907 -16.48681,3.29277 -32.82082,-1.1569 -48.61523,-5.17188 -14.18717,-3.60642 -33.87399,-12.03468 -46.97669,-18.04422 l -5.22644,2.30985 c 9.84654,4.72646 19.84686,9.12046 29.88086,13.28711 17.42493,7.64408 43.61411,13.61126 60.125,13.86914 9.59392,0.14984 20.50434,-1.34016 25.83789,-12.68555 1.2818,-5.13636 0.80639,-11.56076 -0.53906,-16.77539 z"
             style="fill:#4d4d4d;fill-opacity:1;fill-rule:evenodd;stroke:none;stroke-width:1px;stroke-linecap:butt;stroke-linejoin:miter;stroke-opacity:1" />
        </g>
      </g>
      <path
         id="path3385"
         transform="translate(261.81818,244.54545)"
         d="m 329.6543,825.24219 0.48242,2.36133 c 2.27215,0.1383 3.57865,0.73434 5.8418,1.00586 l 0,-2.82032 c -2.26763,-0.2782 -4.05629,-0.44727 -6.32422,-0.54687 z m 8.7539,0.85351 0,2.84375 c 1.20879,0.1733 2.41549,0.36292 3.6211,0.57422 0.0168,-0.077 0.0363,-0.15422 0.0488,-0.23242 0.0809,-0.5056 0.13934,-1.01733 0.26954,-1.51563 0.33976,-1.30019 0.15508,-0.44216 0.25195,-0.90624 -1.41266,-0.31111 -2.81989,-0.56538 -4.19141,-0.76368 z m 6.54492,1.34766 c -0.1385,0.55537 -0.32212,1.10151 -0.41796,1.66602 -0.0378,0.22248 -0.044,0.45102 -0.0801,0.67382 -0.0107,0.066 -0.0273,0.13002 -0.041,0.19532 0.36298,0.074 0.72732,0.13409 1.08985,0.21289 0,0 9.67001,2.29214 9.5957,5.89062 l 0.41601,-3.78125 c 0,0 -8.5699,-4.31772 -10.5625,-4.85742 z m 16.7168,16.13476 -3.17383,0.002 c 0.77724,3.5263 -0.0852,8.50747 -2.09375,11.98437 -1.64846,3.1165 -3.54488,5.98507 -5.63086,8.66407 1.64991,0 3.29976,-0.0102 4.94922,0.01 1.6592,-2.3269 3.13012,-4.75603 4.29688,-7.30273 1.82827,-3.9907 2.92544,-8.26408 2.89648,-12.86328 -0.005,-0.01 -0.023,-0.0155 -0.0273,-0.0215 -0.0325,-0.046 -0.055,-0.097 -0.082,-0.14648 -0.0196,-0.013 -0.0166,-0.0104 -0.043,-0.0274 -0.0633,-0.049 -0.17301,-0.067 -0.18945,-0.14453 -0.004,-0.019 0.0358,-0.01 0.0684,0 -0.12285,-0.035 -0.25213,-0.058 -0.35937,-0.125 -0.0271,-0.017 0.0145,-0.0185 0.0645,-0.0195 -0.0241,0 -0.051,2.5e-4 -0.0762,-0.01 l -0.57226,0 c -0.009,0.3225 -0.0165,0.94727 -0.0274,0.94727 l 0,-0.94727 z m -170.84375,21.86329 c -8.53741,4.1784 -17.02264,8.70741 -25.18945,13.69921 0.18176,0.1334 0.35384,0.26749 0.44922,0.36719 0.22285,0.2328 0.37286,0.51309 0.50195,0.80469 7.20026,-4.658 14.56219,-9.0514 21.6875,-13.4082 l 1.88672,-1.08789 0.66406,-0.375 z m 156.76367,2.53125 c -1.59555,1.7643 -3.28524,3.43527 -5.0332,5.04687 -0.0116,0.042 -0.0231,0.094 -0.0312,0.12109 -0.0396,0.13011 -0.10175,0.2519 -0.16016,0.375 0.11588,0.2763 0.19484,0.60657 0.17383,1.04297 l -0.002,0 c -0.0653,1.3579 0.0812,2.77404 -0.0371,4.14844 3.4604,-3.2796 7.03025,-6.78329 10.20898,-10.58789 l -0.16406,0 -4.05469,0 c -0.35461,0 -0.65032,-0.056 -0.90039,-0.14648 z m -5.10156,5.11328 c -0.0332,0.031 -0.0651,0.0617 -0.0977,0.0937 -0.004,0.051 -0.0112,0.10154 -0.0156,0.15234 0.0334,-0.032 0.0704,-0.0646 0.084,-0.10156 0.0167,-0.0454 0.0218,-0.0957 0.0293,-0.14453 z m -3.90625,3.37695 c -7.74374,6.4108 -16.44694,11.85537 -24.89062,17.54297 -5.29368,3.38314 -10.73363,6.65071 -16.27344,9.81445 l 0,6.04883 c 13.48746,-7.38935 26.42687,-15.70224 38.37891,-25.41016 0.0974,-0.5089 0.29124,-0.96308 0.65624,-1.36718 0.071,-0.079 0.18248,-0.16631 0.25196,-0.22071 0.0303,-0.024 0.059,-0.045 -0.0703,0.043 0.0694,-0.065 0.0592,-0.0583 0.0703,-0.0703 -0.003,-0.072 -0.008,-0.11345 -0.0234,-0.0644 -0.0317,-0.4426 -0.0422,-0.92029 0.22266,-1.30469 -10e-4,-0.01 -9.6e-4,-0.0135 -0.002,-0.0215 -0.008,-0.42808 0.43842,-0.64117 0.63086,-1.08007 0.29013,-0.6783 0.19751,-1.32637 0.42188,-1.72071 -0.006,0.005 -0.0115,0.0108 -0.0176,0.0156 -0.0215,0.018 0.0594,-0.0933 0.041,-0.0723 -0.011,0.0161 -0.0137,0.0396 -0.0234,0.0566 0.011,-0.01 0.022,-0.0195 0.0332,-0.0293 0.0368,-0.1005 0.0912,-0.20827 0.12695,-0.28907 0.0217,-0.027 0.003,0.13917 0.0117,0.10547 0.0934,-0.5107 0.21403,-1.05178 0.27344,-1.30468 0.0545,-0.2061 0.11401,-0.43447 0.18164,-0.66797 l 0,-0.004 z m -175.16797,4.04492 c -1.18765,0.7441 -2.3649,1.50278 -3.53711,2.26758 0.0964,0.2292 0.15664,0.50974 0.17383,0.83984 0.10878,0.078 0.0495,0.03 0.75977,0.51954 1.22504,-0.8338 2.45985,-1.65561 3.69922,-2.47071 -0.0779,-0.2316 -0.16146,-0.46083 -0.2793,-0.67383 -0.0162,-0.029 0.0425,0.0866 0.0117,0.0996 -0.0418,0.018 -0.0885,-0.0268 -0.12696,-0.0508 -0.12179,-0.076 -0.23418,-0.1669 -0.35156,-0.25 -0.22128,-0.1534 -0.25543,-0.20065 -0.34961,-0.28125 z m 173.49219,0.98047 c -0.007,0.024 -0.0201,0.0569 -0.0176,0.0859 0.0748,0.3815 -0.014,0.0681 0.0176,-0.0859 z m -179.79102,3.10938 0,0.002 c -14.62318,9.8864 -27.77925,21.56142 -37.61328,35.94922 -2.21728,3.24402 -3.43213,7.58403 -3.40429,12.01953 l 3.93945,0 c 0.0968,-3.4658 1.35595,-7.56258 4.17773,-12.39258 8.09484,-13.8555 20.32285,-24.64178 33.76758,-34.08008 -0.0717,-0.1327 -0.13101,-0.27172 -0.17773,-0.41992 -0.0572,-0.054 -0.14503,-0.28913 -0.0117,-0.0488 -0.0662,-0.2226 -0.10788,-0.45806 -0.13281,-0.69726 -0.0625,-0.035 -0.12168,-0.076 -0.18555,-0.10938 -0.13306,-0.07 -0.25309,-0.14505 -0.35938,-0.22265 z m 116.20704,31.91406 c -13.344,6.46398 -27.09546,12.2263 -40.96485,17.14844 l 0,5.04882 c 4.02066,-1.26306 7.94492,-2.61074 11.58594,-4.08398 9.83919,-4.01056 19.67949,-8.18616 29.37891,-12.67188 l 0,-5.4414 z m -73.94532,27.42969 c -7.2091,1.7758 -15.55282,2.74286 -22.84765,4.10156 -16.33896,2.0223 -35.63753,5.06729 -49.55664,-3.44531 -0.33956,-0.20767 -0.6621,-0.43055 -0.98243,-0.6543 l 0,0.33008 -6.46875,0 c 1.91242,2.85621 4.66744,5.24037 8.37305,6.71289 15.0462,5.979 41.40807,3.25402 60.96485,-0.67578 3.48147,-0.6434 7.5711,-1.56066 11.03124,-2.31446 l -0.51367,-4.05468 z"
         style="fill:#4d4d4d;fill-opacity:1;fill-rule:evenodd;stroke:none;stroke-width:1px;stroke-linecap:butt;stroke-linejoin:miter;stroke-opacity:1" />
    </g>
  </g>
</svg>
