<?xml version="1.0" encoding="UTF-8" standalone="no"?>
<svg
   xmlns:dc="http://purl.org/dc/elements/1.1/"
   xmlns:cc="http://creativecommons.org/ns#"
   xmlns:rdf="http://www.w3.org/1999/02/22-rdf-syntax-ns#"
   xmlns:svg="http://www.w3.org/2000/svg"
   xmlns="http://www.w3.org/2000/svg"
   version="1.1"
   id="svg2"
   viewBox="0 0 518.07344 334.9024"
   height="94.516899mm"
   width="146.21184mm">
  <defs
     id="defs4" />
  <metadata
     id="metadata7">
    <rdf:RDF>
      <cc:Work
         rdf:about="">
        <dc:format>image/svg+xml</dc:format>
        <dc:type
           rdf:resource="http://purl.org/dc/dcmitype/StillImage" />
        <dc:title></dc:title>
      </cc:Work>
    </rdf:RDF>
  </metadata>
  <g
     transform="translate(-80.444697,-72.854716)"
     id="layer1">
    <g
       transform="translate(-261.81818,-244.54545)"
       id="g4871">
      <g
         transform="matrix(1.3101431,0,0,1.3616585,-160.33254,-303.54497)"
         style="font-style:normal;font-weight:normal;font-size:40px;line-height:125%;font-family:sans-serif;letter-spacing:0px;word-spacing:0px;fill:#000000;fill-opacity:1;stroke:none;stroke-width:1px;stroke-linecap:butt;stroke-linejoin:miter;stroke-opacity:1"
         id="flowRoot4417" />
      <g
         style="fill:#000000;fill-opacity:1;stroke:none"
         id="g4446">
        <g
           style="fill:#000000;fill-opacity:1;stroke:none"
           id="g4452" />
      </g>
      <g
         transform="translate(-4.7634376,-369.16641)"
         id="g4800">
        <path
           id="path4403"
           d="m 670.85185,916.71406 0,-80.0926 60.18519,0 0,16.66667 -36.57408,0 0,13.88889 32.87037,0 0,16.2037 -32.4074,0 0,33.33334 z"
           style="fill:#000000;fill-opacity:1;fill-rule:evenodd;stroke:none;stroke-width:1px;stroke-linecap:butt;stroke-linejoin:miter;stroke-opacity:1" />
        <path
           id="path4405"
           d="m 738.46296,917.17702 20.83334,0 0,-61.11111 16.0387,59.85724 17.75759,0 16.01874,-59.78275 0,60.57366 20.55534,0 0,-80.0926 -32.87037,0 -12.67391,47.29968 -12.62791,-47.12799 -33.03152,0 z"
           style="fill:#000000;fill-opacity:1;fill-rule:evenodd;stroke:none;stroke-width:1px;stroke-linecap:butt;stroke-linejoin:miter;stroke-opacity:1" />
        <path
           id="path4407"
           d="m 637.03711,836.1582 -26.38867,1.38868 -30.55664,79.16796 25.46289,0 3.70508,-12.96289 27.77734,-0.92773 4.62891,13.42773 26.38867,0 -31.01758,-80.09375 z m -13.42578,20.83399 8.33398,29.6289 -16.66797,0 8.33399,-29.6289 z"
           style="fill:#000000;fill-opacity:1;fill-rule:evenodd;stroke:none;stroke-width:1px;stroke-linecap:butt;stroke-linejoin:miter;stroke-opacity:1" />
        <path
           transform="matrix(1.3101431,0,0,1.3616585,-160.33254,-303.54497)"
           id="path4426"
           style="font-style:normal;font-variant:normal;font-weight:bold;font-stretch:normal;font-size:40px;line-height:125%;font-family:sans-serif;-inkscape-font-specification:'sans-serif Bold';letter-spacing:0px;word-spacing:0px;fill:#000000;fill-opacity:1;stroke:none;stroke-width:1px;stroke-linecap:butt;stroke-linejoin:miter;stroke-opacity:1"
           d="m 571.17773,802.14536 q -2.32421,0 -3.55468,1.67968 -1.21094,1.66016 -1.21094,4.80469 0,3.14453 1.21094,4.82422 1.23047,1.66016 3.55468,1.66016 2.28516,0 3.4961,-1.66016 1.21094,-1.67969 1.21094,-4.82422 0,-3.14453 -1.21094,-4.80469 -1.21094,-1.67968 -3.4961,-1.67968 z m 0,-5 q 5.64454,0 8.8086,3.04687 3.18359,3.04688 3.18359,8.4375 0,5.39063 -3.18359,8.4375 -3.16406,3.04688 -8.8086,3.04688 -5.66406,0 -8.86718,-3.04688 -3.1836,-3.04687 -3.1836,-8.4375 0,-5.39062 3.1836,-8.4375 3.20312,-3.04687 8.86718,-3.04687 z" />
        <path
           transform="matrix(1.3101431,0,0,1.3616585,-160.33254,-303.54497)"
           id="path4428"
           style="font-style:normal;font-variant:normal;font-weight:bold;font-stretch:normal;font-size:40px;line-height:125%;font-family:sans-serif;-inkscape-font-specification:'sans-serif Bold';letter-spacing:0px;word-spacing:0px;fill:#000000;fill-opacity:1;stroke:none;stroke-width:1px;stroke-linecap:butt;stroke-linejoin:miter;stroke-opacity:1"
           d="m 595.25977,816.38364 0,11.48437 -6.99219,0 0,-30.19531 6.99219,0 0,3.20313 c 0.96354,-1.27605 2.03125,-2.21355 3.20312,-2.8125 1.17187,-0.61198 2.51953,-0.91797 4.04297,-0.91797 2.69531,0 4.90885,1.07422 6.64062,3.22265 1.73177,2.13542 2.09879,4.88933 2.09879,8.26172 0,3.3724 -0.36702,6.13282 -2.09879,8.28125 -1.73177,2.13542 -3.94531,3.20313 -6.64062,3.20313 -1.52344,0 -2.8711,-0.29948 -4.04297,-0.89844 -1.17187,-0.61198 -2.23958,-1.55599 -3.20312,-2.83203 z m 4.64843,-14.16016 c -1.49739,0 -2.64974,0.55339 -3.45703,1.66016 -0.79427,1.09375 -1.1914,2.67578 -1.1914,4.74609 0,2.07031 0.39713,3.65886 1.1914,4.76563 0.80729,1.09375 1.95964,1.64062 3.45703,1.64062 1.4974,0 2.63672,-0.54687 3.41797,-1.64062 0.79427,-1.09375 1.19141,-2.6823 1.19141,-4.76563 0,-2.08333 -0.39714,-3.67187 -1.19141,-4.76562 -0.78125,-1.09375 -1.92057,-1.64063 -3.41797,-1.64063 z" />
        <path
           transform="matrix(1.3101431,0,0,1.3616585,-160.33254,-303.54497)"
           id="path4430"
           style="font-style:normal;font-variant:normal;font-weight:bold;font-stretch:normal;font-size:40px;line-height:125%;font-family:sans-serif;-inkscape-font-specification:'sans-serif Bold';letter-spacing:0px;word-spacing:0px;fill:#000000;fill-opacity:1;stroke:none;stroke-width:1px;stroke-linecap:butt;stroke-linejoin:miter;stroke-opacity:1"
           d="m 638.77539,808.55161 0,1.99218 -16.34766,0 q 0.25391,2.46094 1.77735,3.69141 1.52344,1.23047 4.25781,1.23047 2.20703,0 4.51172,-0.64453 2.32422,-0.66406 4.76562,-1.99219 l 0,5.39063 q -2.48046,0.9375 -4.96093,1.40625 -2.48047,0.48828 -4.96094,0.48828 -5.9375,0 -9.23828,-3.00782 -3.28125,-3.02734 -3.28125,-8.47656 0,-5.35156 3.22265,-8.41797 3.24219,-3.0664 8.90625,-3.0664 5.15625,0 8.24219,3.10547 3.10547,3.10546 3.10547,8.30078 z m -7.1875,-2.32422 q 0,-1.99219 -1.17187,-3.20313 -1.15235,-1.23047 -3.02735,-1.23047 -2.03125,0 -3.30078,1.15235 -1.26953,1.13281 -1.58203,3.28125 l 9.08203,0 z" />
        <path
           transform="matrix(1.3101431,0,0,1.3616585,-160.33254,-303.54497)"
           id="path4432"
           style="font-style:normal;font-variant:normal;font-weight:bold;font-stretch:normal;font-size:40px;line-height:125%;font-family:sans-serif;-inkscape-font-specification:'sans-serif Bold';letter-spacing:0px;word-spacing:0px;fill:#000000;fill-opacity:1;stroke:none;stroke-width:1px;stroke-linecap:butt;stroke-linejoin:miter;stroke-opacity:1"
           d="m 666.11914,806.22739 0,13.32031 -7.03125,0 0,-2.16797 0,-8.02734 q 0,-2.83203 -0.13672,-3.90625 -0.11719,-1.07422 -0.42969,-1.58203 -0.41015,-0.6836 -1.11328,-1.05469 -0.70312,-0.39063 -1.60156,-0.39063 -2.1875,0 -3.4375,1.69922 -1.25,1.67969 -1.25,4.66797 l 0,10.76172 -6.99219,0 0,-21.875 6.99219,0 0,3.20313 q 1.58203,-1.91407 3.35938,-2.8125 1.77734,-0.91797 3.92578,-0.91797 3.78906,0 5.74218,2.32422 1.97266,2.32421 1.97266,6.75781 z" />
        <path
           id="path4434"
           d="m 462.97339,873.65397 c -0.32016,-3.80773 -0.61482,-7.74448 -0.88189,-11.81464 -1.63399,-88.88889 17.70641,-117.43892 22.02536,-125.51775 0,0 48.56287,-68.5999 64.90274,94.472 0,0 -20.08425,-148.46839 -59.62673,-89.64486 0,0 -21.74581,27.88016 -21.09222,123.63179 0,0 0.10055,6.2506 0.46627,12.47588 m 1.36602,15.28067 c 1.96217,20.45876 5.93742,47.50395 13.85399,64.07351 0,0 17.32025,56.20913 45.42483,6.86275 0,0 -6.86274,23.20261 -25.16339,22.54902 0,0 -28.94463,-1.73358 -40.00378,-97.51412"
           style="fill:#000000;fill-opacity:1;fill-rule:evenodd;stroke:none;stroke-width:1px;stroke-linecap:butt;stroke-linejoin:miter;stroke-opacity:1" />
        <path
           id="path4436"
           d="m 410.08984,784.71484 c -3.88751,0.0154 -6.78275,0.26651 -8.24414,0.69727 -8.35507,2.46276 -14.52402,3.61232 -11.68359,18.02734 4.46222,22.64553 26.44626,42.74559 42.25586,58.40235 17.8622,16.12345 41.27456,29.22883 62.51176,40.45312 l 7.11715,-1.81445 c -21.52169,-11.47164 -46.17227,-25.99109 -64.74024,-41.83203 -15.22998,-15.19971 -35.36847,-33.19277 -42.64453,-54.27735 -4.32241,-10.2181 0.004,-14.1627 8.13672,-16.87695 9.07026,-3.02732 38.79047,0.11236 61.28711,7.44141 l 0,-1.20313 c -18.44834,-6.65727 -41.41613,-9.06749 -53.9961,-9.01758 z m 56.42578,9.94141 0,1.08594 c 1.70412,0.59286 3.36965,1.20387 4.96094,1.8457 -0.10081,-0.2419 -0.15065,-0.54302 -0.1289,-0.89648 -1.55385,-0.72021 -3.17921,-1.38928 -4.83204,-2.03516 z m 8.26172,3.75195 0,0.59375 c 2.13672,0.9657 4.13888,1.97454 5.94141,3.03321 -1.81719,-1.29673 -3.81917,-2.4986 -5.94141,-3.62696 z m 85.02735,45.78321 c 7.25582,5.57798 14.32567,11.40152 21.18945,17.45703 0.12995,-0.0602 0.7792,-0.37029 1.40625,-0.66211 -7.31906,-5.74147 -14.7968,-11.00302 -22.5957,-16.79492 z m 25.67383,19.22265 c -0.27263,0.12123 -0.54317,0.29558 -0.76563,0.42383 -0.72718,0.41922 -0.72321,0.40938 -0.76953,0.43164 0.74587,0.67167 1.4774,1.35874 2.21875,2.03516 0.34131,-0.48799 0.69671,-0.96482 1.0918,-1.41016 -0.59205,-0.49061 -1.18163,-0.99867 -1.77539,-1.48047 z m 5.14062,4.33008 c -0.094,0.19183 -0.21476,0.38123 -0.44141,0.64063 -0.22922,0.26234 -0.63321,0.4545 -1.07031,0.62304 0.18625,0.17053 0.37442,0.33892 0.5586,0.51172 1.64897,1.66432 2.11653,1.80469 3.8125,3.48438 l 0.94921,-1.875 c -1.26537,-1.16812 -2.53581,-2.28493 -3.80859,-3.38477 z m 28.01953,39.58398 c 3.11894,9.19666 0.0446,22.18046 -10.88086,23.53907 -16.48681,3.29277 -32.82082,-1.1569 -48.61523,-5.17188 -14.18717,-3.60642 -33.87399,-12.03468 -46.97669,-18.04422 l -5.22644,2.30985 c 9.84654,4.72646 19.84686,9.12046 29.88086,13.28711 17.42493,7.64408 43.61411,13.61126 60.125,13.86914 9.59392,0.14984 20.50434,-1.34016 25.83789,-12.68555 1.2818,-5.13636 0.80639,-11.56076 -0.53906,-16.77539 z"
           style="fill:#000000;fill-opacity:1;fill-rule:evenodd;stroke:none;stroke-width:1px;stroke-linecap:butt;stroke-linejoin:miter;stroke-opacity:1" />
        <path
           id="path4439"
           d="m 591.60352,796.04102 c -2.75552,-0.006 -5.50708,0.11507 -8.25196,0.33203 -0.008,0.16443 -0.0214,0.32918 -0.006,0.49414 0.12781,0.46461 0.21251,0.73664 0.28516,1.25 0.0156,0.11026 0,0.22262 0,0.33398 l 0,0.28516 c 2.7562,-0.0812 5.51068,-0.076 8.26172,0.008 l 0,-0.7793 c -0.0411,-0.65618 0.24046,-1.27227 0.27539,-1.91406 -0.18816,-0.002 -0.37633,-0.009 -0.56445,-0.01 z m 3.93359,0.10937 0,2.76367 c 2.27215,0.13829 4.54154,0.33196 6.80469,0.60352 l 0,-2.82031 c -2.26763,-0.27828 -4.53676,-0.44721 -6.80469,-0.54688 z m -14.63086,0.45508 c -2.66019,0.26808 -5.31476,0.60902 -7.95703,1.04297 0.12537,0.28188 0.27763,0.57096 0.29297,0.7832 0.0186,0.25744 0.029,0.5162 0.008,0.77344 -10e-4,0.0134 -0.007,0.0259 -0.01,0.0391 0.0133,0.0446 0.0267,0.0969 0.041,0.125 2.63874,-0.24368 5.27924,-0.41316 7.91992,-0.5332 l 0,-0.38477 c 0,-0.11136 0.0178,-0.22405 0,-0.33398 -0.0112,-0.0689 -0.0621,-0.12513 -0.084,-0.19141 -0.0447,-0.1353 -0.0772,-0.27478 -0.11524,-0.41211 -0.0971,-0.30162 -0.10714,-0.60484 -0.0957,-0.9082 z m 23.86523,0.39844 0,2.84375 c 1.20879,0.17326 2.41549,0.3629 3.6211,0.57422 0.0168,-0.0774 0.0363,-0.15426 0.0488,-0.23243 0.0809,-0.5056 0.13933,-1.01733 0.26953,-1.51562 0.33976,-1.30016 0.15508,-0.44222 0.25195,-0.90625 -1.41266,-0.3111 -2.81989,-0.56537 -4.19141,-0.76367 z m -34.1875,1.04882 c -3.73002,0.67753 -7.43774,1.49185 -11.11132,2.41993 l -12.5,2.71679 c 0.0203,0.0391 0.0401,0.0794 0.0566,0.1211 7.85943,-1.53539 15.81842,-2.86734 23.80468,-3.70899 -0.0169,-0.12521 -0.0213,-0.18255 -0.0723,-0.46289 0.0218,-0.0968 0.0438,-0.1818 0.0664,-0.27148 -0.11937,-0.36063 -0.19853,-0.62426 -0.24414,-0.81446 z m 40.73243,0.29688 c -0.13857,0.55605 -0.32202,1.10284 -0.41797,1.66797 -0.0378,0.22246 -0.044,0.45109 -0.0801,0.67383 -0.0107,0.0659 -0.0273,0.13 -0.041,0.19531 0.36298,0.0737 0.72732,0.13411 1.08985,0.21289 4.13911,1.04156 7.68605,3.6204 10.09375,6.94922 0.008,0.001 0.017,8e-4 0.0254,0.002 0.75299,0.094 1.50932,0.19724 2.24609,0.37891 1.16637,0.2876 1.92115,0.59766 2.73828,0.93945 0.14569,-0.12607 0.30387,-0.21878 0.47266,-0.25 -0.26553,-0.49214 -0.55283,-0.96877 -0.86719,-1.42383 -0.0976,-0.001 -0.19546,-4.9e-4 -0.30273,-0.0117 -0.61344,-0.0644 -1.65385,-0.10201 -2.24024,-0.41797 -0.22764,-0.12264 -0.37254,-0.21862 -0.48437,-0.30664 -0.0243,0.003 -0.0483,0.004 -0.0723,0.006 0.008,0.0178 0.0263,0.0303 0.0332,0.0488 0.022,0.0589 -0.0742,0.0217 -0.17383,-0.0352 -0.58774,0.0204 -1.09212,-0.1655 -1.61328,-0.4668 -0.81824,-0.22656 -0.77403,-0.44966 -1.17188,-0.94336 -0.0257,-0.0685 -0.0412,-0.14196 -0.0781,-0.20508 -0.0782,-0.13375 -0.22107,-0.23735 -0.26758,-0.38086 -0.009,-0.009 -0.0213,-0.0131 -0.0293,-0.0234 -0.4792,-0.61388 -0.6203,-1.1129 -0.47851,-1.47851 -0.29987,-0.13583 -0.57535,-0.32794 -0.84375,-0.58203 -0.42891,-0.21724 -0.22082,-0.18597 -0.44727,-0.21875 0.0399,0.0205 0.16218,0.0806 0.12109,0.0625 -0.26847,-0.11827 -0.56887,-0.18615 -0.80273,-0.36328 -0.59722,-0.45236 -0.6474,-1.30006 -0.58008,-1.98047 -1.86788,-0.83001 -3.83553,-1.5092 -5.82812,-2.04883 z m -68.26758,5.69336 -5.79297,1.25976 c 1.91939,-0.40882 3.85797,-0.79809 5.79297,-1.1914 z m 79.89062,2.15039 c -0.0335,-0.0414 0.1215,0.17155 0.0781,0.14062 -0.046,-0.0329 -0.0813,-0.0787 -0.1211,-0.11914 0.03,0.043 0.0469,0.075 0.0859,0.125 0.0797,0.10204 0.17398,0.19457 0.26367,0.29102 -0.0822,-0.12189 -0.14542,-0.23812 -0.30664,-0.4375 z m 1.91993,8.29492 c 0.77724,3.52622 -0.0852,8.50746 -2.09376,11.98438 -1.64846,3.11648 -3.54487,5.98507 -5.63085,8.66406 1.64991,-0.003 3.29975,-0.01 4.94921,0.01 1.6592,-2.32693 3.13012,-4.75601 4.29688,-7.30273 1.82827,-3.99064 2.92544,-8.26403 2.89648,-12.86328 -0.005,-0.006 -0.023,-0.0154 -0.0273,-0.0215 -0.0325,-0.0459 -0.055,-0.0974 -0.082,-0.14648 -0.0196,-0.0133 -0.0166,-0.01 -0.043,-0.0273 -0.0633,-0.0485 -0.17301,-0.0665 -0.18945,-0.14454 -0.004,-0.0192 0.0358,-0.006 0.0684,0.002 -0.12286,-0.0349 -0.25214,-0.0576 -0.35938,-0.125 -0.0271,-0.0171 0.0145,-0.0182 0.0644,-0.0195 -0.0241,-0.004 -0.051,-0.004 -0.0762,-0.01 l -0.57226,0 c -0.009,0.32255 -0.0165,0.94727 -0.0274,0.94727 l 0,-0.94727 z m -167.66993,21.86133 c -8.53741,4.1784 -17.02264,8.70743 -25.18945,13.69922 0.18176,0.13339 0.35384,0.26755 0.44922,0.36719 0.22285,0.23283 0.37286,0.51307 0.50195,0.80468 7.20026,-4.65797 14.56219,-9.05134 21.6875,-13.4082 l 1.88672,-1.08789 z m 156.76367,2.53125 c -1.59555,1.76425 -3.28524,3.43529 -5.0332,5.04687 -0.0116,0.042 -0.023,0.0941 -0.0312,0.1211 -0.0396,0.13006 -0.10174,0.25187 -0.16015,0.375 0.11588,0.27626 0.19483,0.60658 0.17382,1.04297 l -0.002,0 c -0.0653,1.35791 0.0812,2.77402 -0.0371,4.14843 3.4604,-3.27958 7.03026,-6.78326 10.20899,-10.58789 l -0.16407,0 -4.05468,0 c -0.35461,0 -0.65034,-0.0564 -0.90041,-0.14648 z m -5.10156,5.11328 c -0.0332,0.0306 -0.0651,0.0625 -0.0976,0.0937 -0.004,0.051 -0.0112,0.10151 -0.0156,0.15234 0.0334,-0.032 0.0704,-0.0629 0.084,-0.0996 0.0169,-0.0459 0.0216,-0.0968 0.0293,-0.14648 z m -3.90625,3.37695 c -7.74374,6.41081 -16.44694,11.85535 -24.89062,17.54297 -32.02799,20.46876 -68.99801,37.14102 -105.62305,47.36719 l 0.81445,3.83203 c 11.19509,-2.90062 24.31922,-6.23388 35.06055,-10.58008 32.30163,-13.16651 64.63287,-28.05631 91.85352,-50.16601 0.0974,-0.5089 0.29125,-0.96306 0.65625,-1.36719 0.071,-0.0786 0.18247,-0.16628 0.25195,-0.2207 -3e-5,-0.001 3e-5,-0.003 0,-0.004 0.0303,-0.0235 0.059,-0.0454 -0.0703,0.043 0.0694,-0.0651 0.0592,-0.058 0.0703,-0.0703 -0.003,-0.0717 -0.008,-0.11301 -0.0234,-0.0645 -0.0317,-0.44252 -0.0422,-0.92026 0.22266,-1.30468 -10e-4,-0.007 -10e-4,-0.0144 -0.002,-0.0215 -0.008,-0.42813 0.43805,-0.64116 0.63049,-1.08008 0.3027,-0.7077 0.18087,-1.38992 0.44569,-1.77734 0.0184,-0.0206 -0.0625,0.0896 -0.041,0.0723 0.0176,-0.0142 0.0336,-0.0303 0.0508,-0.0449 0.0368,-0.10045 0.0912,-0.20637 0.12694,-0.28712 0.0217,-0.0272 0.003,0.13721 0.0117,0.10352 0.0934,-0.51069 0.21403,-1.05176 0.27344,-1.30469 0.0545,-0.20612 0.11401,-0.43451 0.18164,-0.66797 z m -175.16797,4.04493 c -1.18765,0.74412 -2.3649,1.50284 -3.53711,2.26757 0.0964,0.22923 0.15664,0.50971 0.17383,0.83985 0.10878,0.0781 0.0495,0.0302 0.75977,0.51953 1.22504,-0.8338 2.45985,-1.65561 3.69922,-2.4707 -0.0779,-0.23166 -0.16146,-0.46083 -0.2793,-0.67383 -0.0162,-0.0292 0.0425,0.0865 0.0117,0.0996 -0.0418,0.0177 -0.0885,-0.0266 -0.12695,-0.0508 -0.12179,-0.0765 -0.23419,-0.16689 -0.35157,-0.25 -0.22128,-0.15338 -0.25543,-0.20056 -0.34961,-0.28125 z m 173.49219,0.98046 c -0.007,0.0239 -0.0201,0.0567 -0.0176,0.0859 0.0748,0.38149 -0.014,0.0682 0.0176,-0.0859 z m -179.79101,3.11133 c -14.62318,9.88644 -27.77926,21.56141 -37.61329,35.94922 -5.93883,8.6889 -4.694,25.23723 8.39258,30.4375 15.0462,5.97898 41.4081,3.25404 60.96485,-0.67578 3.48148,-0.64339 7.57109,-1.56065 11.03125,-2.31445 l -0.51368,-4.05469 c -7.2091,1.77585 -15.55282,2.74287 -22.84765,4.10156 -16.33896,2.02228 -35.63753,5.06726 -49.55664,-3.44531 -6.98867,-4.27409 -10.06216,-11.91925 -2.75782,-24.42188 8.09484,-13.85558 20.32285,-24.64171 33.76758,-34.08007 -0.0717,-0.13264 -0.13101,-0.27179 -0.17773,-0.41993 -0.0572,-0.0545 -0.14501,-0.28737 -0.0117,-0.0469 -0.0662,-0.22266 -0.10788,-0.45805 -0.13281,-0.69727 -0.0625,-0.0354 -0.12168,-0.0758 -0.18555,-0.10937 -0.13306,-0.07 -0.25308,-0.14514 -0.35937,-0.22266 z"
           style="fill:#000000;fill-opacity:1;fill-rule:evenodd;stroke:none;stroke-width:1px;stroke-linecap:butt;stroke-linejoin:miter;stroke-opacity:1" />
      </g>
    </g>
  </g>
</svg>
